<svg id="Layer_1" data-name="Layer 1" xmlns="http://www.w3.org/2000/svg" viewBox="0 0 147.68 178.3"><defs><style>.cls-1{fill:#f8a79f;}.cls-2{fill:#e18980;}.cls-3{fill:#5fa9d1;}.cls-4{fill:#5a98c0;}.cls-5{fill:#f9a160;}.cls-6{fill:#ed8b4b;}.cls-7{fill:#fff;}.cls-8,.cls-9{fill:#362836;}.cls-9{opacity:0.3;}.cls-10{fill:#aa5450;}.cls-11{fill:#874039;}</style></defs><path class="cls-1" d="M317.45,451.41c-8.48-4.62-6.17-27-6.17-27l-12.7.82v-.81l-1.36.4-1.36-.4v.81l-12.7-.82s2.31,22.37-6.17,27-58.6,6.94-53.2,58.61H370.66C376.06,458.35,325.94,456,317.45,451.41Z" transform="translate(-223.38 -331.72)"/><path class="cls-2" d="M281.38,445.65q15.22-2.28,30.42-4.69a67.69,67.69,0,0,1-.52-16.54l-12.7.82v-.81l-1.36.4-1.36-.4v.81l-12.7-.82S284.5,437.42,281.38,445.65Z" transform="translate(-223.38 -331.72)"/><path class="cls-3" d="M325.5,454c-7.54,4.4-17.57,7.09-28.58,7.09s-20.88-2.64-28.39-7C251.74,458.62,219.39,468,223.79,510H370.66C375.09,467.63,342.15,458.47,325.5,454Z" transform="translate(-223.38 -331.72)"/><path class="cls-4" d="M360.09,471.72c-6.75,3.23-14.2,4.33-21.59,6.63q-15.67,4.88-31.45,9.38c-21.09,6-42.27,11.72-63.45,17.41L225.48,510H370.66C372.55,491.94,367.63,479.92,360.09,471.72Z" transform="translate(-223.38 -331.72)"/><path class="cls-5" d="M262.62,455.77C245.19,461,219.87,472.52,223.79,510h59.84Z" transform="translate(-223.38 -331.72)"/><path class="cls-5" d="M331.4,455.64,321.86,510h48.8C374.61,472.21,348.84,460.84,331.4,455.64Z" transform="translate(-223.38 -331.72)"/><path class="cls-6" d="M278.37,510h5.26l-21-54.25a85.11,85.11,0,0,0-14.39,5.64Z" transform="translate(-223.38 -331.72)"/><path class="cls-6" d="M331.4,455.64,321.86,510h4.39l25.17-45.59A76.42,76.42,0,0,0,331.4,455.64Z" transform="translate(-223.38 -331.72)"/><path class="cls-2" d="M272.39,391.69c-2.5-7.76-8.42-6-9-5.77s-6.69,1-5.64,9.05,5.78,12.53,10.2,11.24C272.52,405.48,274.9,399.49,272.39,391.69Z" transform="translate(-223.38 -331.72)"/><path class="cls-2" d="M322.29,391.69c2.5-7.76,8.41-6,9-5.77s6.7,1,5.64,9.05-5.78,12.53-10.2,11.24C322.15,405.48,319.77,399.49,322.29,391.69Z" transform="translate(-223.38 -331.72)"/><path class="cls-1" d="M266.32,379.94c3.1-34,28.94-32.08,31.38-31.83,2.43-.25,28.28-2.16,31.37,31.83,3.12,34.2-12.11,56.53-31.37,55.3C278.44,436.47,263.21,414.14,266.32,379.94Z" transform="translate(-223.38 -331.72)"/><path class="cls-2" d="M302.15,395.94a17.53,17.53,0,0,1,1.06,2.4c.29.81.54,1.63.76,2.46.12.41.2.83.3,1.25s.19.84.26,1.26c.17.84.29,1.69.38,2.54l0,.4-.22.2c-.69.63-1.41,1.25-2.13,1.85s-1.47,1.2-2.26,1.74c.52-.81,1.09-1.56,1.66-2.32s1.16-1.48,1.77-2.19l-.17.59c-.25-.82-.49-1.64-.67-2.48-.1-.42-.2-.83-.27-1.25s-.17-.84-.23-1.27c-.12-.85-.23-1.7-.28-2.56A17.61,17.61,0,0,1,302.15,395.94Z" transform="translate(-223.38 -331.72)"/><path class="cls-7" d="M310.87,416.14c-6.15,6-16.57,5.65-24.46.32" transform="translate(-223.38 -331.72)"/><path class="cls-8" d="M322.07,384.41l-.74-.41-.83-.45-1.05-.56c-.39-.17-.79-.39-1.24-.57l-.66-.29-.69-.26c-.47-.2-1-.28-1.44-.45a11,11,0,0,0-1.48-.22l-.74-.06c-.24,0-.48,0-.73.05a8.41,8.41,0,0,0-1.42.23,11.61,11.61,0,0,0-1.34.42l-.33.1-.3.15-.59.28a7.9,7.9,0,0,0-1.05.52c-.3.19-.58.33-.81.46-.47.25-.77.38-.77.38s.12-.28.38-.76c.13-.23.29-.53.5-.85a5.16,5.16,0,0,1,.82-1,7,7,0,0,1,1.15-1.06,9.16,9.16,0,0,1,1.54-.9l.91-.34a3.25,3.25,0,0,1,1-.22c.33-.05.67-.1,1-.13s.68,0,1,0a9.83,9.83,0,0,1,2,.4c.31.12.61.25.9.38a4.33,4.33,0,0,1,.83.43c.26.16.52.31.76.47l.67.52a11.1,11.1,0,0,1,1.09,1.07,9.23,9.23,0,0,1,1.31,1.85A5.46,5.46,0,0,1,322.07,384.41Z" transform="translate(-223.38 -331.72)"/><path class="cls-8" d="M289.88,384.41l-.74-.41-.83-.45-1.05-.56c-.39-.17-.79-.39-1.23-.57l-.67-.29-.69-.26c-.46-.2-1-.28-1.44-.45a11,11,0,0,0-1.48-.22l-.74-.06c-.24,0-.48,0-.73.05a8.58,8.58,0,0,0-1.42.23,11.61,11.61,0,0,0-1.34.42l-.33.1-.3.15-.59.28a8.56,8.56,0,0,0-1.05.52c-.3.19-.58.33-.81.46-.47.25-.77.38-.77.38s.12-.28.38-.76c.14-.23.3-.53.51-.85a4.74,4.74,0,0,1,.81-1,7,7,0,0,1,1.15-1.06,9.16,9.16,0,0,1,1.54-.9l.91-.34a3.25,3.25,0,0,1,1-.22c.33-.05.67-.1,1-.13s.69,0,1,0a10.07,10.07,0,0,1,2,.4l.89.38a4.33,4.33,0,0,1,.83.43c.26.16.52.31.76.47l.67.52a12.51,12.51,0,0,1,1.1,1.07,9.54,9.54,0,0,1,1.3,1.85A5.46,5.46,0,0,1,289.88,384.41Z" transform="translate(-223.38 -331.72)"/><path class="cls-8" d="M288.86,396.73s-.07-.28-.23-.74a12.44,12.44,0,0,0-.78-1.82,6.3,6.3,0,0,0-1.68-2,4,4,0,0,0-1.26-.65,2.64,2.64,0,0,0-.71-.17,3.58,3.58,0,0,0-.74-.06,5.66,5.66,0,0,0-.73,0,5.21,5.21,0,0,0-.78.14,3.6,3.6,0,0,0-1.22.58,3.77,3.77,0,0,0-.92.95,6,6,0,0,0-.58,1.12,10.45,10.45,0,0,0-.53,1.9c-.08.48-.11.77-.11.77a6,6,0,0,1-.12-.78,6.8,6.8,0,0,1,.1-2.09,5.07,5.07,0,0,1,.47-1.37,4.23,4.23,0,0,1,1-1.32,4.15,4.15,0,0,1,1.63-.89,6,6,0,0,1,.84-.17,6.38,6.38,0,0,1,.95-.05,4,4,0,0,1,.91.1,3.52,3.52,0,0,1,.9.24,3.26,3.26,0,0,1,.82.39,4.32,4.32,0,0,1,.72.53,5.8,5.8,0,0,1,1.63,2.58,7.79,7.79,0,0,1,.39,2.05A5.27,5.27,0,0,1,288.86,396.73Z" transform="translate(-223.38 -331.72)"/><path class="cls-8" d="M317.78,396.26s-.07-.28-.23-.74a11.42,11.42,0,0,0-.78-1.82,6,6,0,0,0-1.67-2,3.87,3.87,0,0,0-1.26-.65,2.46,2.46,0,0,0-.71-.17,2.62,2.62,0,0,0-.74-.06c-.24,0-.55,0-.73,0a5.36,5.36,0,0,0-.79.14,3.7,3.7,0,0,0-1.22.58,4.35,4.35,0,0,0-.92,1,7.47,7.47,0,0,0-.58,1.12,9.8,9.8,0,0,0-.52,1.91,7.48,7.48,0,0,0-.11.76,4.61,4.61,0,0,1-.13-.77,7.13,7.13,0,0,1,.1-2.09A5.71,5.71,0,0,1,308,392a4.16,4.16,0,0,1,1-1.33,4.27,4.27,0,0,1,1.64-.89,7,7,0,0,1,.84-.17,7.81,7.81,0,0,1,.94-.05,4.71,4.71,0,0,1,.92.1,3.64,3.64,0,0,1,.9.24,3.28,3.28,0,0,1,.82.4,4.18,4.18,0,0,1,.72.53,5.81,5.81,0,0,1,1.63,2.57,7.79,7.79,0,0,1,.39,2.05A5.92,5.92,0,0,1,317.78,396.26Z" transform="translate(-223.38 -331.72)"/><path class="cls-9" d="M251.25,385a18.09,18.09,0,0,0,4.59-4.91,15.07,15.07,0,0,0,.8-1.78c.15-.64.36-1.29.47-2s.19-1.36.21-2.06,0-1.41,0-2.13-.11-1.39-.17-2.1l-.05-.53c0-.16,0-.07,0-.2v-.25c0-.35,0-.7,0-1.06a40.21,40.21,0,0,1,.5-4.3,22.27,22.27,0,0,1,1.16-4.25,8.77,8.77,0,0,1,.44-1,6.74,6.74,0,0,1,.52-.89l.26-.41.38-.45.19-.22.05-.06h0l.08-.08.43-.4a15.33,15.33,0,0,1,2.46-1.71q0-1.11,0-2.22a17.6,17.6,0,0,0-3.77,2.52l-.43.4-.11.1-.1.1-.07.09-.19.22-.39.46-.38.57a8.27,8.27,0,0,0-.63,1.15,11.33,11.33,0,0,0-.49,1.15,24,24,0,0,0-1.16,4.63,35.26,35.26,0,0,0-.4,4.53c0,.37,0,.74,0,1.11v.28c0,.05,0,.32,0,.34l.07.53c.08.7.16,1.4.24,2.08.16,2.62,0,5.24-1,7.26a18.51,18.51,0,0,1-4.09,4.89,18.17,18.17,0,0,0-3.24,4,10.68,10.68,0,0,0-.85,1.69,8.5,8.5,0,0,0-.49,1.31l-.35,1.1.45-1.06a15,15,0,0,1,1.57-2.83A17.64,17.64,0,0,1,251.25,385Z" transform="translate(-223.38 -331.72)"/><path class="cls-10" d="M315.25,350.74s11.33.33,15,14.33-.33,16.67-.33,28c0,0,0,7-1.67,9.33l-2.33-23S310.25,371.07,315.25,350.74Z" transform="translate(-223.38 -331.72)"/><path class="cls-11" d="M294.8,332a17.91,17.91,0,0,0-6.07,0,12.89,12.89,0,0,0-4.23,1.55,14.36,14.36,0,0,0-3.55,3.05c-2.07,2.38-3.62,5.12-5.5,7.56a18.59,18.59,0,0,1-6.9,5.84,22.39,22.39,0,0,1-2.15.89c-.75.29-1.49.57-2.28,1a18.38,18.38,0,0,0-4.25,2.77l-.43.4-.11.1-.1.1,0,0,0,.06-.19.22-.39.46-.38.57a8.27,8.27,0,0,0-.63,1.15,11.33,11.33,0,0,0-.49,1.15,24,24,0,0,0-1.16,4.63,35.26,35.26,0,0,0-.4,4.53c0,.37,0,.74,0,1.11v.28c0,.05,0,.32,0,.34l.07.53c.08.7.16,1.4.24,2.08.16,2.62,0,5.24-1,7.26a18.51,18.51,0,0,1-4.09,4.89,18.17,18.17,0,0,0-3.24,4,10.68,10.68,0,0,0-.85,1.69,8.5,8.5,0,0,0-.49,1.31l-.35,1.1.45-1.06a15,15,0,0,1,1.57-2.83,17.64,17.64,0,0,1,3.42-3.64,18.09,18.09,0,0,0,4.59-4.91,15.07,15.07,0,0,0,.8-1.78c.15-.64.36-1.29.47-2s.19-1.36.21-2.06,0-1.41,0-2.13-.11-1.39-.17-2.1l-.05-.53c0-.16,0-.07,0-.2v-.25c0-.35,0-.7,0-1.06a40.21,40.21,0,0,1,.5-4.3,22.27,22.27,0,0,1,1.16-4.25,8.77,8.77,0,0,1,.44-1,6.74,6.74,0,0,1,.52-.89l.26-.41.38-.45.19-.22.05-.06h0l.08-.08.43-.4A15.85,15.85,0,0,1,264,354.1c-.46.29-.9.6-1.3.91-.22.16-.42.33-.62.5l-.24.2a9.47,9.47,0,0,0-.77.78c-3.63,3.87-3.2,13.66-3.15,13.91,2.66,15.34-6.67,12.34-9.67,23.34s11.84,18.14,8.33,22c-6.66,7.33-10-2.34-10-2.34-1.33,5.67,4.67,14,12,13,6.94-.94,14.47-6.37,11.87-17.69l0,.05.78,1.86c.23.58.51,1.16.71,1.75l.54,1.81.36,1.83c0,.62.13,1.24.13,1.86a12.55,12.55,0,0,1-.13,1.84,9.33,9.33,0,0,1-.42,1.81,10.18,10.18,0,0,1-.68,1.73,11.59,11.59,0,0,1-2.21,3.06,14.14,14.14,0,0,1-3,2.39,17.92,17.92,0,0,1-3.58,1.65,17.65,17.65,0,0,0,3.83-1.18,14.9,14.9,0,0,0,3.44-2.15,12.87,12.87,0,0,0,2.72-3.11,11.78,11.78,0,0,0,.94-1.88,10.87,10.87,0,0,0,.62-2,14.84,14.84,0,0,0,.31-2.09c.05-.7,0-1.41,0-2.11s-.17-1.39-.27-2.08-.33-1.35-.49-2-.45-1.31-.68-2l-.66-1.85c-.1-.31-.23-.62-.32-.92l-.19-.85a8.18,8.18,0,0,1-.23-1.68,4.22,4.22,0,0,1,1-2.83c.67-.87,1.71-1.71,2.68-2.74a17.24,17.24,0,0,0,1.4-1.64,13.2,13.2,0,0,0,1.14-1.91l.48-1,.34-1c.1-.35.24-.7.31-1.05l.2-1.06.19-1.06.07-1.06.13-2,.11-2a14.81,14.81,0,0,1,.15-1.93,27.3,27.3,0,0,1,.66-3.66,16,16,0,0,1,.5-1.8l.61-1.65.6-.87.75-.85c.29-.24.56-.5.85-.74s.62-.43.95-.62.68-.34,1-.48l1.11-.37,1.17-.24c.4-.07.81-.09,1.21-.14l2.67-.29,1.32-.16c.45-.06.91-.19,1.37-.29a27.49,27.49,0,0,0,2.71-.67l2.6-.93.33-.17a20.55,20.55,0,0,0,16-14.47C318.51,346.67,310,333,294.8,332Zm-19.24,62.07a11.62,11.62,0,0,1-2,2.9c-.81.93-1.84,1.78-2.77,3a6.2,6.2,0,0,0-.63,1,4.63,4.63,0,0,0-.47,1.14l-.18.59-.06.61a5.35,5.35,0,0,0-.05,1.19c0,.16,0,.31.05.47-1.82-7.74,3.24-7.28,6.61-12.13l-.12.39Z" transform="translate(-223.38 -331.72)"/><path class="cls-9" d="M272.34,379.31a40.58,40.58,0,0,1-8.7-25c-.33.22-.65.43-.94.66s-.42.33-.62.5l-.24.2a9.47,9.47,0,0,0-.77.78c-3.63,3.87-3.2,13.66-3.15,13.91,2.66,15.34-6.67,12.34-9.67,23.34s11.84,18.14,8.33,22c-6.66,7.33-10-2.34-10-2.34-1.33,5.67,4.67,14,12,13,6.94-.94,14.47-6.37,11.87-17.69l0,.05.78,1.86c.23.58.51,1.16.71,1.75l.54,1.81.36,1.83c0,.62.13,1.24.13,1.86a12.55,12.55,0,0,1-.13,1.84,9.33,9.33,0,0,1-.42,1.81,10.18,10.18,0,0,1-.68,1.73,11.59,11.59,0,0,1-2.21,3.06,14.14,14.14,0,0,1-3,2.39,17.92,17.92,0,0,1-3.58,1.65,17.65,17.65,0,0,0,3.83-1.18,14.9,14.9,0,0,0,3.44-2.15,12.87,12.87,0,0,0,2.72-3.11,11.78,11.78,0,0,0,.94-1.88,10.87,10.87,0,0,0,.62-2,14.84,14.84,0,0,0,.31-2.09c.05-.7,0-1.41,0-2.11s-.17-1.39-.27-2.08-.33-1.35-.49-2-.45-1.31-.68-2l-.66-1.85c-.1-.31-.23-.62-.32-.92l-.19-.85a8.18,8.18,0,0,1-.23-1.68,4.22,4.22,0,0,1,1-2.83c.67-.87,1.71-1.71,2.68-2.74a17.24,17.24,0,0,0,1.4-1.64,13.2,13.2,0,0,0,1.14-1.91l.48-1,.34-1c.1-.35.24-.7.31-1.05l.2-1.06.19-1.06.07-1.06.13-2A53,53,0,0,1,272.34,379.31Zm3.59,13.95-.37.79a11.62,11.62,0,0,1-2,2.9c-.81.93-1.84,1.78-2.77,3a6.2,6.2,0,0,0-.63,1,4.63,4.63,0,0,0-.47,1.14l-.18.59-.06.61a5.35,5.35,0,0,0-.05,1.19c0,.16,0,.31.05.47-1.82-7.74,3.24-7.28,6.61-12.13Z" transform="translate(-223.38 -331.72)"/></svg>