<svg id="Layer_1" data-name="Layer 1" xmlns="http://www.w3.org/2000/svg" viewBox="0 0 150.35 184.49"><defs><style>.cls-1{fill:#aa5450;}.cls-2{fill:#874039;}.cls-3{fill:#feedee;}.cls-4,.cls-8{fill:#362836;}.cls-4{opacity:0.1;}.cls-5{fill:#5a98c0;}.cls-6{fill:#6dbde7;}.cls-7{fill:#fff;}.cls-9{fill:#fedcc1;}.cls-10{fill:#ddbba3;}</style></defs><path class="cls-1" d="M317.45,455.55c-8.48-4.63-6.17-27-6.17-27l-12.7.81v-.81l-1.36.41-1.36-.41v.81l-12.7-.81s2.31,22.36-6.17,27-58.6,6.94-53.2,58.6H370.66C376.06,462.49,325.94,460.17,317.45,455.55Z" transform="translate(-222.05 -329.66)"/><path class="cls-2" d="M281.38,449.78q15.22-2.26,30.42-4.68a67.69,67.69,0,0,1-.52-16.54l-12.7.81v-.81l-1.36.41-1.36-.41v.81l-12.7-.81S284.5,441.55,281.38,449.78Z" transform="translate(-222.05 -329.66)"/><path class="cls-3" d="M328.12,457.68c-4.55,11.88-16.66,20.38-30.9,20.38s-26.35-8.5-30.9-20.38c-17.47,4.79-48.19,15.05-43.86,56.47H372C376.31,472.73,345.59,462.47,328.12,457.68Z" transform="translate(-222.05 -329.66)"/><path class="cls-4" d="M360.05,473.91C341.3,486,318.7,490.79,297.68,497.49,278,503.76,258,509.2,237.94,514.15H372C374,494.82,368.39,482.28,360.05,473.91Z" transform="translate(-222.05 -329.66)"/><path class="cls-5" d="M331.08,458.52v55.63H372C376.07,475,348.83,463.68,331.08,458.52Z" transform="translate(-222.05 -329.66)"/><path class="cls-5" d="M263.08,458.6c-17.75,5.2-44.69,16.59-40.62,55.55h40.62Z" transform="translate(-222.05 -329.66)"/><path class="cls-6" d="M263.57,458.6v55.55s-20.5-34.95-19.5-46.95S261.57,454.49,263.57,458.6Z" transform="translate(-222.05 -329.66)"/><path class="cls-6" d="M330.05,458.6v55.55s20.5-34.95,19.5-46.95S332.05,454.49,330.05,458.6Z" transform="translate(-222.05 -329.66)"/><path class="cls-2" d="M272.39,395.82c-2.5-7.75-8.42-6-9-5.77s-6.69,1-5.64,9.05,5.78,12.53,10.2,11.24C272.52,409.62,274.9,403.62,272.39,395.82Z" transform="translate(-222.05 -329.66)"/><path class="cls-2" d="M322.29,395.82c2.5-7.75,8.41-6,9-5.77s6.7,1,5.64,9.05-5.78,12.53-10.2,11.24C322.15,409.62,319.77,403.62,322.29,395.82Z" transform="translate(-222.05 -329.66)"/><path class="cls-1" d="M266.32,384.07c3.1-34,28.94-32.08,31.38-31.83,2.43-.25,28.28-2.16,31.37,31.83,3.12,34.2-12.11,56.53-31.37,55.3C278.44,440.6,263.21,418.27,266.32,384.07Z" transform="translate(-222.05 -329.66)"/><path class="cls-2" d="M302.15,388.06c.43,1.56.76,3.13,1.06,4.71s.55,3.15.77,4.73c.12.79.2,1.59.3,2.38s.19,1.59.26,2.38c.17,1.59.29,3.19.38,4.78l0,.43-.31.2c-1,.62-2.05,1.23-3.09,1.82s-2.1,1.16-3.2,1.68c.88-.84,1.8-1.6,2.72-2.37s1.86-1.51,2.82-2.23l-.29.62c-.26-1.58-.49-3.16-.67-4.75-.1-.79-.2-1.58-.27-2.38s-.17-1.59-.23-2.39c-.13-1.59-.23-3.19-.28-4.79S302.07,389.68,302.15,388.06Z" transform="translate(-222.05 -329.66)"/><path class="cls-7" d="M310.87,417.27c-6.15,6-16.57,5.65-24.46.32" transform="translate(-222.05 -329.66)"/><path class="cls-8" d="M322.07,385.54l-.74-.41-.83-.45-1.05-.56c-.39-.17-.79-.39-1.24-.57l-.66-.29-.69-.26c-.47-.2-1-.28-1.44-.45a12.9,12.9,0,0,0-1.48-.22l-.74-.06c-.24,0-.48,0-.73.06a7.5,7.5,0,0,0-1.42.22,11.61,11.61,0,0,0-1.34.42l-.33.1-.3.15-.59.28a7.9,7.9,0,0,0-1.05.52c-.3.19-.58.33-.81.46-.47.25-.77.39-.77.39s.12-.29.38-.77c.13-.23.29-.53.5-.85a5.16,5.16,0,0,1,.82-1,7,7,0,0,1,1.15-1.06,9.16,9.16,0,0,1,1.54-.9l.91-.34a3.25,3.25,0,0,1,1-.22c.33-.05.67-.1,1-.13s.68,0,1,0a9.19,9.19,0,0,1,2,.41c.31.11.61.24.9.37a4.33,4.33,0,0,1,.83.43c.26.16.52.31.76.47l.67.52a11.1,11.1,0,0,1,1.09,1.07,9.23,9.23,0,0,1,1.31,1.85A5.46,5.46,0,0,1,322.07,385.54Z" transform="translate(-222.05 -329.66)"/><path class="cls-8" d="M289.88,385.54l-.74-.41-.83-.45-1.05-.56c-.39-.17-.79-.39-1.23-.57l-.67-.29-.69-.26c-.46-.2-1-.28-1.44-.45a12.9,12.9,0,0,0-1.48-.22l-.74-.06c-.24,0-.48,0-.73.06a7.62,7.62,0,0,0-1.42.22,11.61,11.61,0,0,0-1.34.42l-.33.1-.3.15-.59.28a8.56,8.56,0,0,0-1.05.52c-.3.19-.58.33-.81.46-.47.25-.77.39-.77.39s.12-.29.38-.77c.14-.23.3-.53.51-.85a4.74,4.74,0,0,1,.81-1,7,7,0,0,1,1.15-1.06,9.16,9.16,0,0,1,1.54-.9L279,380a3.25,3.25,0,0,1,1-.22c.33-.05.67-.1,1-.13s.69,0,1,0a9.41,9.41,0,0,1,2,.41c.3.11.6.24.89.37a4.33,4.33,0,0,1,.83.43c.26.16.52.31.76.47l.67.52a12.51,12.51,0,0,1,1.1,1.07,9.54,9.54,0,0,1,1.3,1.85A5.46,5.46,0,0,1,289.88,385.54Z" transform="translate(-222.05 -329.66)"/><path class="cls-8" d="M288.86,397.86s-.07-.28-.23-.74a12.44,12.44,0,0,0-.78-1.82,6.3,6.3,0,0,0-1.68-2,4,4,0,0,0-1.26-.65,2.64,2.64,0,0,0-.71-.17,3.58,3.58,0,0,0-.74-.06,5.66,5.66,0,0,0-.73,0,5.21,5.21,0,0,0-.78.14,3.6,3.6,0,0,0-1.22.58,3.77,3.77,0,0,0-.92.95,6,6,0,0,0-.58,1.12,10.45,10.45,0,0,0-.53,1.9c-.08.48-.11.77-.11.77a6,6,0,0,1-.12-.77,6.86,6.86,0,0,1,.1-2.1,5.07,5.07,0,0,1,.47-1.37,4.23,4.23,0,0,1,1-1.32,4.15,4.15,0,0,1,1.63-.89,6,6,0,0,1,.84-.17,6.38,6.38,0,0,1,.95-.05,4,4,0,0,1,.91.1,3.52,3.52,0,0,1,.9.24,3.26,3.26,0,0,1,.82.39,4.32,4.32,0,0,1,.72.53,5.8,5.8,0,0,1,1.63,2.58,7.79,7.79,0,0,1,.39,2.05A5.27,5.27,0,0,1,288.86,397.86Z" transform="translate(-222.05 -329.66)"/><path class="cls-8" d="M317.78,397.39s-.07-.28-.23-.74a11.42,11.42,0,0,0-.78-1.82,6.11,6.11,0,0,0-1.67-2,3.87,3.87,0,0,0-1.26-.65,2.46,2.46,0,0,0-.71-.17,2.62,2.62,0,0,0-.74-.06c-.24,0-.55,0-.73,0a5.36,5.36,0,0,0-.79.14,3.7,3.7,0,0,0-1.22.58,4.19,4.19,0,0,0-.92,1,6.93,6.93,0,0,0-.58,1.11,9.8,9.8,0,0,0-.52,1.91,7.48,7.48,0,0,0-.11.76,4.61,4.61,0,0,1-.13-.77,7.13,7.13,0,0,1,.1-2.09,5.71,5.71,0,0,1,.47-1.37,4.16,4.16,0,0,1,1-1.33,4.27,4.27,0,0,1,1.64-.89,7,7,0,0,1,.84-.17,7.81,7.81,0,0,1,.94,0,4.71,4.71,0,0,1,.92.1,3.64,3.64,0,0,1,.9.24,3.28,3.28,0,0,1,.82.4,4.18,4.18,0,0,1,.72.53,5.81,5.81,0,0,1,1.63,2.57,7.79,7.79,0,0,1,.39,2.05A5.92,5.92,0,0,1,317.78,397.39Z" transform="translate(-222.05 -329.66)"/><path class="cls-9" d="M330.42,357.87c-1.75-7-5.91-8.74-7.9-9.18-1.15-18-49.15-21.26-49.77-17.82-.67,3.66,17,9.66,17,9.66s-31.67-8.33-30-1c1.35,6,14.14,5.32,18.9,4.87-6.69.83-29.53,4.5-19.23,14.8a16.63,16.63,0,0,0,2.72,2.19c-1,12.77,2.83,42.81,2.83,42.81h2.66l-1-20.67c5.17-1,7.53-13.27,8.33-18.73,8.75.13,17.54-2.84,20.8-4.07-2,.91-5.06,3-1.68,6.14s15.84-.7,22.05-2.95c1.14,4.87,4.82,18.52,10.29,19.61l-1,20.67h2.66S332.75,367.2,330.42,357.87Z" transform="translate(-222.05 -329.66)"/><path class="cls-10" d="M330.42,357.87c-1.75-7-5.91-8.74-7.9-9.18-.21-3.29-2-6.08-4.76-8.43-1.49,12.18-10.4,22.54-21.72,27.55,4.87,1.18,14.75-2,20.09-3.89,1.14,4.87,4.82,18.52,10.29,19.61l-1,20.67h2.66S332.75,367.2,330.42,357.87Z" transform="translate(-222.05 -329.66)"/></svg>