<svg id="Layer_1" data-name="Layer 1" xmlns="http://www.w3.org/2000/svg" xmlns:xlink="http://www.w3.org/1999/xlink" viewBox="0 0 166.32 167.38"><defs><style>.cls-1,.cls-9{fill:none;}.cls-2{fill:#362836;}.cls-10,.cls-3{fill:#281f2a;}.cls-4{fill:#aa5450;}.cls-5{fill:#874039;}.cls-6{fill:#f26961;}.cls-7{opacity:0.9;}.cls-8{clip-path:url(#clip-path);}.cls-9{stroke:#feedee;stroke-miterlimit:10;stroke-width:3.06px;}.cls-10{opacity:0.3;}.cls-11{fill:#fff;}</style><clipPath id="clip-path" transform="translate(-214.06 -341.17)"><path class="cls-1" d="M319.66,449.11c-3.37-1.81-5.08-6.29-5.92-11.11a70.65,70.65,0,0,1-29.9.06c-.84,4.8-2.56,9.25-5.91,11.05-8.75,4.69-60.44,7-54.87,59.44H374.53C380.1,456.15,328.41,453.8,319.66,449.11Z"/></clipPath></defs><path class="cls-2" d="M270.76,400.89s-8.13-1.81-9.33,5.11,3.61,8.43,3.61,8.43-7.23-8.12-12.34-2.41S256,422.56,256,422.56s-9.33-5.12-11.14,1.2S250.59,434,250.59,434s-8.12-.6-7.82,3,8.12.6,8.12.6-11.43,2.11-9.63,11.14,10.84,3.91,10.84,3.91-6.93,3.61-5.12,15.05S300.25,456,300.25,456l.9-31Z" transform="translate(-214.06 -341.17)"/><path class="cls-2" d="M330.15,400.89s8.13-1.81,9.33,5.11-3.61,8.43-3.61,8.43,7.22-8.12,12.34-2.41-3.31,10.54-3.31,10.54,9.33-5.12,11.13,1.2S350.32,434,350.32,434s8.12-.6,7.82,3-8.12.6-8.12.6,11.43,2.11,9.63,11.14-10.84,3.91-10.84,3.91,6.92,3.61,5.12,15.05S300.66,456,300.66,456l-.9-31Z" transform="translate(-214.06 -341.17)"/><path class="cls-3" d="M270.76,400.89s-8.13-1.81-9.33,5.11,3.61,8.43,3.61,8.43-7.23-8.12-12.34-2.41S256,422.56,256,422.56s-9.33-5.12-11.14,1.2S250.59,434,250.59,434s-8.12-.6-7.82,3,8.12.6,8.12.6-11.43,2.11-9.63,11.14,10.84,3.91,10.84,3.91-6.93,3.61-5.12,15.05S300.25,456,300.25,456l.9-31Z" transform="translate(-214.06 -341.17)"/><path class="cls-3" d="M330.15,400.89s8.13-1.81,9.33,5.11-3.61,8.43-3.61,8.43,7.22-8.12,12.34-2.41-3.31,10.54-3.31,10.54,9.33-5.12,11.13,1.2S350.32,434,350.32,434s8.12-.6,7.82,3-8.12.6-8.12.6,11.43,2.11,9.63,11.14-10.84,3.91-10.84,3.91,6.92,3.61,5.12,15.05S300.66,456,300.66,456l-.9-31Z" transform="translate(-214.06 -341.17)"/><path class="cls-4" d="M319.21,450c-8.48-4.63-6.16-27-6.16-27l-12.71.82V423l-1.36.41-1.36-.41v.82l-12.7-.82s2.31,22.36-6.17,27-58.6,6.94-53.2,58.6H372.42C377.82,456.89,327.7,454.57,319.21,450Z" transform="translate(-214.06 -341.17)"/><path class="cls-5" d="M283.14,444.18q15.23-2.26,30.42-4.68a67.43,67.43,0,0,1-.51-16.54l-12.71.82V423l-1.36.41-1.36-.41v.82l-12.7-.82S286.26,436,283.14,444.18Z" transform="translate(-214.06 -341.17)"/><path class="cls-6" d="M319.66,449.11c-3.37-1.81-5.08-6.29-5.92-11.11a70.65,70.65,0,0,1-29.9.06c-.84,4.8-2.56,9.25-5.91,11.05-8.75,4.69-60.44,7-54.87,59.44H374.53C380.1,456.15,328.41,453.8,319.66,449.11Z" transform="translate(-214.06 -341.17)"/><g class="cls-7"><g class="cls-8"><line class="cls-9" y1="103.86" x2="166.32" y2="103.86"/><line class="cls-9" y1="111.97" x2="166.32" y2="111.97"/><line class="cls-9" y1="120.08" x2="166.32" y2="120.08"/><line class="cls-9" y1="128.19" x2="166.32" y2="128.19"/><line class="cls-9" y1="136.3" x2="166.32" y2="136.3"/><line class="cls-9" y1="144.41" x2="166.32" y2="144.41"/><line class="cls-9" y1="152.52" x2="166.32" y2="152.52"/><line class="cls-9" y1="160.62" x2="166.32" y2="160.62"/></g></g><path class="cls-10" d="M228,508.55H374.53c1.83-17.19-2.51-29-9.47-37.27C319.07,482.54,273.81,496.63,228,508.55Z" transform="translate(-214.06 -341.17)"/><path class="cls-5" d="M274.15,390.22c-2.5-7.75-8.42-6-9-5.77s-6.7,1-5.65,9.05,5.78,12.53,10.2,11.24C274.28,404,276.66,398,274.15,390.22Z" transform="translate(-214.06 -341.17)"/><path class="cls-5" d="M324.05,390.22c2.5-7.75,8.42-6,9-5.77s6.7,1,5.64,9.05-5.78,12.53-10.2,11.24C323.91,404,321.53,398,324.05,390.22Z" transform="translate(-214.06 -341.17)"/><path class="cls-4" d="M268.08,378.48c3.1-34,28.94-32.09,31.38-31.83,2.44-.26,28.28-2.16,31.37,31.83,3.12,34.19-12.11,56.52-31.37,55.29C280.2,435,265,412.67,268.08,378.48Z" transform="translate(-214.06 -341.17)"/><path class="cls-5" d="M303.91,394.47a17.53,17.53,0,0,1,1.06,2.4c.29.81.54,1.64.76,2.46.12.42.2.84.3,1.25s.19.84.26,1.26c.17.84.29,1.69.38,2.54l.05.4-.22.2c-.69.64-1.4,1.25-2.13,1.86s-1.47,1.19-2.26,1.73c.52-.81,1.09-1.56,1.66-2.32s1.17-1.48,1.77-2.19l-.17.6c-.25-.82-.49-1.65-.67-2.49-.1-.41-.2-.83-.27-1.25s-.17-.84-.22-1.27c-.13-.84-.24-1.7-.29-2.56A17.61,17.61,0,0,1,303.91,394.47Z" transform="translate(-214.06 -341.17)"/><path class="cls-11" d="M312.63,414.68c-6.15,6-16.57,5.65-24.46.32" transform="translate(-214.06 -341.17)"/><path class="cls-2" d="M323.83,382.94l-.74-.41-.83-.45-1.05-.55c-.39-.17-.79-.4-1.23-.58l-.67-.29-.69-.25c-.46-.21-1-.28-1.44-.45a11,11,0,0,0-1.48-.22l-.74-.06c-.24,0-.48,0-.73.05a8.56,8.56,0,0,0-1.42.22,11.61,11.61,0,0,0-1.34.42l-.33.1-.3.15-.59.28a10.28,10.28,0,0,0-1.05.52c-.3.19-.58.34-.81.46-.47.26-.77.39-.77.39a8.35,8.35,0,0,1,.38-.76c.14-.24.3-.53.51-.85a4.51,4.51,0,0,1,.81-1,6.21,6.21,0,0,1,1.15-1.06,9.19,9.19,0,0,1,1.54-.91c.3-.12.6-.23.91-.33a3.26,3.26,0,0,1,1-.23c.33-.05.67-.1,1-.13s.68,0,1,.05a8.81,8.81,0,0,1,2,.4c.3.11.6.24.89.37a4.33,4.33,0,0,1,.83.43c.26.16.52.31.76.47l.67.53a12.45,12.45,0,0,1,1.1,1.06,9.54,9.54,0,0,1,1.3,1.85A5.46,5.46,0,0,1,323.83,382.94Z" transform="translate(-214.06 -341.17)"/><path class="cls-2" d="M291.64,382.94l-.74-.41-.83-.45-1.05-.55c-.39-.17-.79-.4-1.23-.58l-.67-.29-.69-.25c-.46-.21-1-.28-1.44-.45a10.79,10.79,0,0,0-1.48-.22l-.74-.06c-.24,0-.48,0-.72.05a8.51,8.51,0,0,0-1.43.22,11.61,11.61,0,0,0-1.34.42l-.33.1-.3.15-.59.28a10.28,10.28,0,0,0-1.05.52c-.3.19-.58.34-.81.46-.47.26-.77.39-.77.39a8.35,8.35,0,0,1,.38-.76c.14-.24.3-.53.51-.85a4.51,4.51,0,0,1,.81-1,6.21,6.21,0,0,1,1.15-1.06,8.91,8.91,0,0,1,1.55-.91c.29-.12.6-.23.91-.33a3.13,3.13,0,0,1,1-.23c.33-.05.67-.1,1-.13s.69,0,1,.05a8.81,8.81,0,0,1,2,.4c.3.11.6.24.89.37a4.33,4.33,0,0,1,.83.43c.26.16.52.31.76.47l.67.53a11.21,11.21,0,0,1,1.1,1.06,9.54,9.54,0,0,1,1.3,1.85A5.46,5.46,0,0,1,291.64,382.94Z" transform="translate(-214.06 -341.17)"/><path class="cls-2" d="M290.62,395.26s-.07-.28-.23-.74a12.44,12.44,0,0,0-.78-1.82,6.17,6.17,0,0,0-1.68-2,3.82,3.82,0,0,0-1.25-.65,2.46,2.46,0,0,0-.71-.17,2.69,2.69,0,0,0-.75-.06c-.24,0-.54,0-.73,0a5.21,5.21,0,0,0-.78.14,3.6,3.6,0,0,0-1.22.58,4.35,4.35,0,0,0-.92,1,6,6,0,0,0-.58,1.12,10.74,10.74,0,0,0-.53,1.91c-.08.48-.11.76-.11.76a5.63,5.63,0,0,1-.12-.77,6.8,6.8,0,0,1,.1-2.09,5,5,0,0,1,.47-1.37,4.33,4.33,0,0,1,2.66-2.22,7.82,7.82,0,0,1,.84-.17,8.08,8.08,0,0,1,.95-.05,4.88,4.88,0,0,1,.92.1,3.56,3.56,0,0,1,.89.24,3.18,3.18,0,0,1,.83.4,3.75,3.75,0,0,1,.71.53,5.83,5.83,0,0,1,1.64,2.57,8.13,8.13,0,0,1,.38,2.05A5.21,5.21,0,0,1,290.62,395.26Z" transform="translate(-214.06 -341.17)"/><path class="cls-2" d="M319.54,394.79s-.07-.27-.22-.73a12.25,12.25,0,0,0-.79-1.83,6.21,6.21,0,0,0-1.67-2,4.07,4.07,0,0,0-1.26-.65,2.83,2.83,0,0,0-.71-.17,3,3,0,0,0-.74-.06c-.24,0-.55,0-.73,0a7.1,7.1,0,0,0-.79.14,3.75,3.75,0,0,0-1.21.58,4,4,0,0,0-.93,1,7,7,0,0,0-.58,1.12,10.29,10.29,0,0,0-.52,1.9,7.48,7.48,0,0,0-.11.76,4.61,4.61,0,0,1-.13-.77,7.51,7.51,0,0,1,.1-2.09,5.87,5.87,0,0,1,.47-1.37,4.42,4.42,0,0,1,1-1.33,4.25,4.25,0,0,1,1.64-.88,7,7,0,0,1,.84-.18,6.12,6.12,0,0,1,.94,0,4,4,0,0,1,.92.09,4,4,0,0,1,.9.24,3.46,3.46,0,0,1,.82.4,4.18,4.18,0,0,1,.72.53,5.92,5.92,0,0,1,1.63,2.57,7.86,7.86,0,0,1,.39,2.05A5.92,5.92,0,0,1,319.54,394.79Z" transform="translate(-214.06 -341.17)"/><path class="cls-2" d="M300.46,346.65s1.6,20.83-30,29.56a66.8,66.8,0,0,1-1.8,20.46s-10.23-14.74-5.42-32.2S292.44,333,300.46,346.65Z" transform="translate(-214.06 -341.17)"/><path class="cls-2" d="M298,346.65s-.6,20.83,31,29.56c0,0-1.5,13.24,1.21,23.17,0,0,10.83-17.45,6-34.91S306,333,298,346.65Z" transform="translate(-214.06 -341.17)"/><path class="cls-3" d="M275.23,374.7a40.37,40.37,0,0,1-11.47-11.92c-.19.56-.37,1.12-.53,1.69-4.81,17.46,5.42,32.2,5.42,32.2a66.8,66.8,0,0,0,1.8-20.46C272.15,375.74,273.72,375.23,275.23,374.7Z" transform="translate(-214.06 -341.17)"/></svg>