<svg id="Layer_1" data-name="Layer 1" xmlns="http://www.w3.org/2000/svg" viewBox="0 0 154.54 176.52"><defs><style>.cls-1{fill:#f79a7e;}.cls-2{fill:#da7f65;}.cls-3{fill:#f26961;}.cls-4{fill:#f05550;}.cls-5{fill:#805e6a;}.cls-6{fill:#997382;}.cls-7{fill:#b36752;}.cls-8{fill:#fff;}.cls-9{fill:#362836;}</style></defs><path class="cls-1" d="M317.7,459.47c-8.49-4.63-6.17-27-6.17-27l-12.71.82v-.82l-1.35.41-1.36-.41v.82l-12.71-.82s2.32,22.36-6.17,27-58.6,6.94-53.2,58.6H370.9C376.3,466.41,326.18,464.1,317.7,459.47Z" transform="translate(-219.95 -341.61)"/><path class="cls-2" d="M281.62,453.7Q296.84,451.44,312,449a68,68,0,0,1-.51-16.54l-12.71.82v-.82l-1.35.41-1.36-.41v.82l-12.71-.82S284.74,445.47,281.62,453.7Z" transform="translate(-219.95 -341.61)"/><path class="cls-3" d="M325.84,462.07c-6.9,6.16-17,10.06-28.37,10.06s-21.48-3.9-28.38-10.06c-16.69,4.49-49.48,13.71-45.06,56H370.9C375.32,475.78,342.53,466.56,325.84,462.07Z" transform="translate(-219.95 -341.61)"/><path class="cls-4" d="M223.66,509.29a68.66,68.66,0,0,0,.37,8.78H370.9c1.92-18.35-3.17-30.47-10.92-38.69C314.14,487.39,268.77,497.84,223.66,509.29Z" transform="translate(-219.95 -341.61)"/><path class="cls-5" d="M266.83,460.13l8.66,58H220.16S214.16,468.79,266.83,460.13Z" transform="translate(-219.95 -341.61)"/><path class="cls-6" d="M266.83,460.13l8.66,58-23.33-36.67,9.33-12.67-12-4.66A51,51,0,0,1,266.83,460.13Z" transform="translate(-219.95 -341.61)"/><path class="cls-5" d="M327.62,460.13l-8.67,58h55.34S380.29,468.79,327.62,460.13Z" transform="translate(-219.95 -341.61)"/><path class="cls-6" d="M327.62,460.13l-8.67,58,23.34-36.67L333,468.79l12-4.66A50.93,50.93,0,0,0,327.62,460.13Z" transform="translate(-219.95 -341.61)"/><path class="cls-2" d="M272.63,399.74c-2.5-7.75-8.42-5.95-9-5.77S257,395,258,403s5.77,12.53,10.19,11.23C272.76,413.54,275.14,407.54,272.63,399.74Z" transform="translate(-219.95 -341.61)"/><path class="cls-2" d="M322.53,399.74c2.5-7.75,8.42-5.95,9-5.77s6.7,1,5.64,9.06-5.77,12.53-10.2,11.23C322.39,413.54,320,407.54,322.53,399.74Z" transform="translate(-219.95 -341.61)"/><path class="cls-1" d="M266.57,388c3.09-34,28.93-32.09,31.37-31.83,2.44-.26,28.28-2.16,31.38,31.83,3.11,34.19-12.12,56.52-31.38,55.29C278.68,444.52,263.45,422.19,266.57,388Z" transform="translate(-219.95 -341.61)"/><path class="cls-7" d="M302.4,392c.43,1.56.76,3.13,1.06,4.71s.54,3.15.77,4.74c.11.79.2,1.58.3,2.37s.18,1.59.26,2.39c.16,1.59.28,3.18.38,4.78l0,.43-.31.19c-1,.63-2.05,1.23-3.09,1.82s-2.1,1.17-3.19,1.68c.87-.83,1.79-1.6,2.71-2.37s1.87-1.5,2.82-2.23l-.28.62c-.26-1.58-.5-3.16-.68-4.74-.1-.8-.2-1.59-.27-2.39s-.17-1.58-.22-2.38c-.13-1.6-.23-3.19-.29-4.79S302.32,393.6,302.4,392Z" transform="translate(-219.95 -341.61)"/><path class="cls-8" d="M311.11,421.2c-6.15,6-15.72,5.59-23.62.26" transform="translate(-219.95 -341.61)"/><path class="cls-9" d="M322.31,389.46l-3-1.11c-.43-.14-.86-.33-1.33-.46-.24-.07-.46-.17-.7-.24l-.73-.2c-.48-.17-1-.22-1.46-.36a10.72,10.72,0,0,0-1.47-.18l-.72-.07a5.78,5.78,0,0,1-.72,0,11,11,0,0,0-1.41.15,2.72,2.72,0,0,0-.7.14c-.23,0-.45.12-.68.16a8.24,8.24,0,0,0-1.3.41,8.86,8.86,0,0,0-1.17.4c-.34.15-.67.26-.93.36-.54.2-.9.3-.9.3a8.37,8.37,0,0,1,.34-.87c.13-.27.28-.6.49-1a5.36,5.36,0,0,1,.84-1.12,6.62,6.62,0,0,1,1.23-1.18,8,8,0,0,1,1.67-1c.32-.14.66-.26,1-.38a4.1,4.1,0,0,1,1.06-.25c.36,0,.74-.11,1.11-.14s.75,0,1.12,0a9.62,9.62,0,0,1,2.16.43,10.58,10.58,0,0,1,1,.4,5.07,5.07,0,0,1,.9.46c.28.18.56.34.82.52l.71.58a10.67,10.67,0,0,1,1.16,1.18,9,9,0,0,1,1.3,2.08A4.7,4.7,0,0,1,322.31,389.46Z" transform="translate(-219.95 -341.61)"/><path class="cls-9" d="M293.27,388.81l-3.15-.91c-.45-.11-.91-.27-1.41-.37s-1-.24-1.51-.34-1-.16-1.55-.26-1-.13-1.54-.08h-.77a6.36,6.36,0,0,1-.75.08,11.87,11.87,0,0,0-1.47.25,3.61,3.61,0,0,0-.72.18l-.7.22a9,9,0,0,0-1.32.49,10.9,10.9,0,0,0-1.17.48c-.34.17-.67.31-.94.43-.54.24-.9.36-.9.36a8.6,8.6,0,0,1,.32-.91c.12-.27.27-.62.46-1a6.16,6.16,0,0,1,.82-1.18,6.79,6.79,0,0,1,1.21-1.26c.24-.2.51-.38.77-.58a4,4,0,0,1,.89-.53,7.72,7.72,0,0,1,2.05-.75c.37-.08.74-.16,1.12-.22l1.14,0a9.72,9.72,0,0,1,2.23.27c.35.08.69.21,1,.32a6.26,6.26,0,0,1,1,.4,10.5,10.5,0,0,1,2.95,2.08,9.51,9.51,0,0,1,1.54,2A4.29,4.29,0,0,1,293.27,388.81Z" transform="translate(-219.95 -341.61)"/><path class="cls-9" d="M289.1,401.78s-.07-.27-.23-.74a11.42,11.42,0,0,0-.78-1.82,6.14,6.14,0,0,0-1.68-2,3.82,3.82,0,0,0-1.25-.65,2.46,2.46,0,0,0-.71-.17,2.69,2.69,0,0,0-.75-.06c-.24,0-.54,0-.72,0a5.36,5.36,0,0,0-.79.14A3.6,3.6,0,0,0,281,397a4.19,4.19,0,0,0-.92,1,6.93,6.93,0,0,0-.58,1.11A9.8,9.8,0,0,0,279,401a7.48,7.48,0,0,0-.11.76,4.61,4.61,0,0,1-.13-.77,6.8,6.8,0,0,1,.1-2.09,5.71,5.71,0,0,1,.47-1.37,4.27,4.27,0,0,1,2.66-2.21,5.89,5.89,0,0,1,.85-.18,7.81,7.81,0,0,1,.94-.05,4.8,4.8,0,0,1,.92.1,3.45,3.45,0,0,1,.89.24,3.18,3.18,0,0,1,.83.4,3.75,3.75,0,0,1,.71.53,5.75,5.75,0,0,1,1.64,2.57,7.32,7.32,0,0,1,.38,2.05A5.21,5.21,0,0,1,289.1,401.78Z" transform="translate(-219.95 -341.61)"/><path class="cls-9" d="M318,401.31s-.07-.27-.23-.73a12.48,12.48,0,0,0-.78-1.83,6.37,6.37,0,0,0-1.68-2,4.07,4.07,0,0,0-1.26-.65,2.73,2.73,0,0,0-.71-.17,3.58,3.58,0,0,0-.74-.06c-.24,0-.54,0-.73,0a5.15,5.15,0,0,0-.78.15,3.58,3.58,0,0,0-1.22.57,4,4,0,0,0-.92,1,6.35,6.35,0,0,0-.59,1.12,10.29,10.29,0,0,0-.52,1.9c-.08.48-.11.76-.11.76a6.48,6.48,0,0,1-.13-.77,7.21,7.21,0,0,1,.11-2.09,5.39,5.39,0,0,1,.46-1.37,4.3,4.3,0,0,1,1-1.32,4,4,0,0,1,1.63-.89,6,6,0,0,1,.84-.17,5.27,5.27,0,0,1,1-.05,5.7,5.7,0,0,1,1.81.33,3.46,3.46,0,0,1,.82.4,4.77,4.77,0,0,1,.72.53,5.92,5.92,0,0,1,1.63,2.57,7.93,7.93,0,0,1,.39,2A5.21,5.21,0,0,1,318,401.31Z" transform="translate(-219.95 -341.61)"/><path class="cls-9" d="M282.49,421.13h16l16.67.33s-3.9-7-16.56-6.37S284.83,418.79,282.49,421.13Z" transform="translate(-219.95 -341.61)"/><path class="cls-9" d="M278.16,365.79s13,16.67,31.67,13.67l-4.34-6s11.34,5.33,30.34.33c0,0,1.33-20.66-31-25.33,0,0,15.33,1.33,26,7.67,0,0-31.34-32.67-57,0,0,0-14.67.33-15.34,16.66s3.34,22.34,3.34,22.34,3.33-2.67,4.33,3,0,14.33,3.67,22.33l6-4.33s-7.67-18-6-33C269.83,383.13,279.49,381.13,278.16,365.79Z" transform="translate(-219.95 -341.61)"/><path class="cls-9" d="M331.16,370.79s4.33,36.67-6,51.34l-4-5a56.53,56.53,0,0,0,2.67-44Z" transform="translate(-219.95 -341.61)"/></svg>